<svg xmlns="http://www.w3.org/2000/svg" version="1.1" xmlns:xlink="http://www.w3.org/1999/xlink" xmlns:svgjs="http://svgjs.dev/svgjs" width="2000" height="696" viewBox="0 0 2000 696"><g transform="matrix(1,0,0,1,-1.2121212121212466,1.2135508736232055)"><svg viewBox="0 0 396 138" data-background-color="#ffffff" preserveAspectRatio="xMidYMid meet" height="696" width="2000" xmlns="http://www.w3.org/2000/svg" xmlns:xlink="http://www.w3.org/1999/xlink"><g id="tight-bounds" transform="matrix(1,0,0,1,0.2400000000000091,-0.2406178456321868)"><svg viewBox="0 0 395.52 138.4812356912644" height="138.4812356912644" width="395.52"><g><svg viewBox="0 0 654.3738428746952 229.11230371492996" height="138.4812356912644" width="395.52"><g transform="matrix(1,0,0,1,258.85384287469526,65.62145841372461)"><svg viewBox="0 0 395.52 97.86938688748076" height="97.86938688748076" width="395.52"><g id="textblocktransform"><svg viewBox="0 0 395.52 97.86938688748076" height="97.86938688748076" width="395.52" id="textblock"><g><svg viewBox="0 0 395.52 62.99145012573344" height="62.99145012573344" width="395.52"><g transform="matrix(1,0,0,1,0,0)"><svg width="395.52" viewBox="1.05 -37.5 238.57999999999998 38" height="62.99145012573344" data-palette-color="#906b7f"><path d="M1.05-34.05L1.05-35 16-35Q22.95-35 26.43-33.13 29.9-31.25 29.9-26.8L29.9-26.8Q29.9-19.95 21.65-18.6L21.65-18.6 21.65-18.5Q31.65-17.25 31.65-9.8L31.65-9.8Q31.65-4.35 27.55-2.18 23.45 0 15.75 0L15.75 0 1.05 0 1.05-0.95 4.3-0.95 4.3-34.05 1.05-34.05ZM15.2-17.7L14.05-17.7 14.05-0.95 16.4-0.95Q19.15-0.95 20.25-2.85 21.35-4.75 21.35-8.45L21.35-8.45 21.35-11.1Q21.35-14.4 20-16.05 18.65-17.7 15.2-17.7L15.2-17.7ZM15.65-34.05L14.05-34.05 14.05-18.65 15.35-18.65Q17.95-18.65 18.98-20.23 20-21.8 20-25.05L20-25.05 20-27.4Q20-31.1 19.1-32.58 18.2-34.05 15.65-34.05L15.65-34.05ZM33.25-36.6L33.25-37.5 45.5-37.5 45.5-0.9 48.3-0.9 48.3 0 33.45 0 33.45-0.9 36.2-0.9 36.2-36.6 33.25-36.6ZM65.4-9.85L65.4-9.85 65.4-14.1Q65.4-18.95 64.87-21.18 64.34-23.4 62.45-23.4L62.45-23.4Q61.35-23.4 60.67-22.78 60-22.15 59.7-20.7L59.7-20.7Q59.25-18.45 59.25-13.85L59.25-13.85 59.25-9.95Q59.25-4.5 59.57-3.4 59.9-2.3 60.25-1.6L60.25-1.6Q60.8-0.4 62.4-0.4L62.4-0.4Q64.34-0.4 64.95-2.65L64.95-2.65Q65.4-4.25 65.4-9.85ZM62.3 0.5Q56.05 0.5 52.85-2.7 49.65-5.9 49.65-11.88 49.65-17.85 53.07-21.08 56.5-24.3 62.7-24.3 68.9-24.3 71.95-21.33 75-18.35 75-12.25L75-12.25Q75 0.5 62.3 0.5L62.3 0.5ZM92.54-9.85L92.54-9.85 92.54-14.1Q92.54-18.95 92.02-21.18 91.49-23.4 89.59-23.4L89.59-23.4Q88.49-23.4 87.82-22.78 87.14-22.15 86.84-20.7L86.84-20.7Q86.39-18.45 86.39-13.85L86.39-13.85 86.39-9.95Q86.39-4.5 86.72-3.4 87.04-2.3 87.39-1.6L87.39-1.6Q87.94-0.4 89.54-0.4L89.54-0.4Q91.49-0.4 92.09-2.65L92.09-2.65Q92.54-4.25 92.54-9.85ZM89.44 0.5Q83.19 0.5 79.99-2.7 76.79-5.9 76.79-11.88 76.79-17.85 80.22-21.08 83.64-24.3 89.84-24.3 96.04-24.3 99.09-21.33 102.14-18.35 102.14-12.25L102.14-12.25Q102.14 0.5 89.44 0.5L89.44 0.5ZM113.69-10.35Q113.69-5.1 114.24-3.38 114.79-1.65 116.27-1.65 117.74-1.65 118.82-2.95 119.89-4.25 119.89-6.8L119.89-6.8 119.89-17.7Q119.89-19.85 119.04-21.35 118.19-22.85 116.54-22.85 114.89-22.85 114.29-20.65 113.69-18.45 113.69-12.95L113.69-12.95 113.69-10.35ZM131.64 0L120.54 0 119.99-3.5Q118.29 0.5 113.09 0.5L113.09 0.5Q108.79 0.5 106.42-2.6 104.04-5.7 104.04-11.85L104.04-11.85Q104.04-24.3 113.94-24.3L113.94-24.3Q118.34-24.3 119.74-21.85L119.74-21.85 119.74-36.6 116.69-36.6 116.69-37.5 129.19-37.5 129.19-0.9 131.64-0.9 131.64 0ZM133.49-33.9L133.49-35 151.49-35 151.49-33.9 146.19-33.9 146.19-1.1 147.99-1.1Q152.24-1.1 154.76-3.7 157.29-6.3 159.89-11.7L159.89-11.7 160.94-11.7 159.99 0 133.49 0 133.49-1.1 136.44-1.1 136.44-33.9 133.49-33.9ZM170.09-27.25Q167.44-27.25 166.31-28.6 165.19-29.95 165.19-31.95 165.19-33.95 166.41-35.25 167.64-36.55 170.14-36.55 172.64-36.55 173.94-35.38 175.24-34.2 175.24-32.02 175.24-29.85 173.99-28.55 172.74-27.25 170.09-27.25ZM162.54-22.9L162.54-23.8 174.79-23.8 174.79-0.9 177.59-0.9 177.59 0 162.74 0 162.74-0.9 165.49-0.9 165.49-22.9 162.54-22.9ZM178.68-22.9L178.68-23.8 190.73-23.8 190.73-19.2Q191.53-21.5 193.18-22.9 194.83-24.3 198.18-24.3L198.18-24.3Q205.93-24.3 205.93-15.95L205.93-15.95 205.93-0.9 208.73-0.9 208.73 0 194.58 0 194.58-0.9 196.63-0.9 196.63-17.15Q196.63-20.15 196.23-21.03 195.83-21.9 194.78-21.9L194.78-21.9Q193.18-21.9 191.96-19.8 190.73-17.7 190.73-14.7L190.73-14.7 190.73-0.9 192.88-0.9 192.88 0 178.68 0 178.68-0.9 181.43-0.9 181.43-22.9 178.68-22.9ZM239.63 0L225.73 0 225.73-0.9 228.03-0.9 222.38-12.5 221.43-12.25 221.43-0.9 223.73-0.9 223.73 0 209.38 0 209.38-0.9 212.13-0.9 212.13-36.6 209.18-36.6 209.18-37.5 221.43-37.5 221.43-13.25 222.23-13.55 233.48-22.9 228.78-22.9 228.78-23.8 238.63-23.8 238.63-22.9 235.13-22.9 229.18-17.85 237.83-0.9 239.63-0.9 239.63 0Z" opacity="1" transform="matrix(1,0,0,1,0,0)" fill="#000000" class="wordmark-text-0" data-fill-palette-color="primary" id="text-0"></path></svg></g></svg></g><g transform="matrix(1,0,0,1,0,77.86221970561608)"><svg viewBox="0 0 232.20979200000002 20.00716718186467" height="20.00716718186467" width="232.20979200000002"><g transform="matrix(1,0,0,1,0,0)"><svg width="232.20979200000002" viewBox="2.05 -38.65 589.34 50.55" height="20.00716718186467" data-palette-color="#906b7f"><path d="M25.05-15.45L25.05-15.45 25.05-19.15Q25.05-28.3 24.15-30.7L24.15-30.7Q23.15-33.45 21.3-34.1L21.3-34.1Q20.25-34.5 18.75-34.5 17.25-34.5 16.18-34.1 15.1-33.7 14.4-32.7 13.7-31.7 13.28-30.6 12.85-29.5 12.6-27.5L12.6-27.5Q12.3-24.6 12.3-18.95L12.3-18.95 12.3-15.35Q12.3-9.25 12.78-6.68 13.25-4.1 13.95-3L13.95-3Q15.5-0.55 18.75-0.55L18.75-0.55Q22.7-0.55 23.88-3.88 25.05-7.2 25.05-15.45ZM18.65 0.5Q10.3 0.5 6.18-4.03 2.05-8.55 2.05-17.13 2.05-25.7 6.48-30.63 10.9-35.55 19-35.55 27.1-35.55 31.23-30.88 35.35-26.2 35.35-17.6 35.35-9 31.18-4.25 27 0.5 18.65 0.5ZM38-22.9L38-23.8 50.05-23.8 50.05-19.2Q50.85-21.5 52.5-22.9 54.15-24.3 57.5-24.3L57.5-24.3Q65.25-24.3 65.25-15.95L65.25-15.95 65.25-0.9 68.05-0.9 68.05 0 53.9 0 53.9-0.9 55.95-0.9 55.95-17.15Q55.95-20.15 55.55-21.03 55.15-21.9 54.1-21.9L54.1-21.9Q52.5-21.9 51.27-19.8 50.05-17.7 50.05-14.7L50.05-14.7 50.05-0.9 52.2-0.9 52.2 0 38 0 38-0.9 40.75-0.9 40.75-22.9 38-22.9ZM81.85 0.5Q75.4 0.5 72.17-2.83 68.95-6.15 68.95-12.08 68.95-18 72.57-21.15 76.2-24.3 81.8-24.3L81.8-24.3Q93.15-24.3 92.7-12.9L92.7-12.9 78.6-12.9 78.6-10.95Q78.6-6.05 79.85-3.55 81.1-1.05 84.2-1.05L84.2-1.05Q90-1.05 91.8-7.25L91.8-7.25 92.7-7.1Q91.75-3.5 89.27-1.5 86.8 0.5 81.85 0.5L81.85 0.5ZM78.65-16.35L78.65-13.9 83.8-13.9 83.8-16.35Q83.8-20.4 83.32-21.88 82.85-23.35 81.42-23.35 80-23.35 79.32-21.78 78.65-20.2 78.65-16.35L78.65-16.35ZM138.69-18.1L138.69-18.1Q138.69-7.8 132.89-3.75L132.89-3.75Q127.54 0 118.19 0L118.19 0 104.04 0 104.04-0.95 107.34-0.95 107.34-34.05 104.04-34.05 104.04-35 119.49-35Q129.09-35 133.89-31.08 138.69-27.15 138.69-18.1ZM117.09-34.05L117.09-0.95 118.99-0.95Q124.04-0.95 126.22-4.53 128.39-8.1 128.39-16.5L128.39-16.5 128.39-19.4Q128.39-30.65 124.09-32.95L124.09-32.95Q122.04-34.05 118.29-34.05L118.29-34.05 117.09-34.05ZM157.94-22.4L157.94-22.4Q156.09-22.4 154.69-20 153.29-17.6 153.29-14.3L153.29-14.3 153.29-0.9 156.84-0.9 156.84 0 141.24 0 141.24-0.9 143.99-0.9 143.99-22.9 141.24-22.9 141.24-23.8 153.29-23.8 153.29-19Q153.94-21.55 155.79-22.93 157.64-24.3 159.99-24.3 162.34-24.3 163.81-22.98 165.29-21.65 165.29-19.23 165.29-16.8 164.19-15.5 163.09-14.2 160.81-14.2 158.54-14.2 157.46-15.7 156.39-17.2 157.19-19.85L157.19-19.85 158.99-19.85Q160.24-22.4 157.94-22.4ZM181.89-9.85L181.89-9.85 181.89-14.1Q181.89-18.95 181.36-21.18 180.84-23.4 178.94-23.4L178.94-23.4Q177.84-23.4 177.16-22.78 176.49-22.15 176.19-20.7L176.19-20.7Q175.74-18.45 175.74-13.85L175.74-13.85 175.74-9.95Q175.74-4.5 176.06-3.4 176.39-2.3 176.74-1.6L176.74-1.6Q177.29-0.4 178.89-0.4L178.89-0.4Q180.84-0.4 181.44-2.65L181.44-2.65Q181.89-4.25 181.89-9.85ZM178.79 0.5Q172.54 0.5 169.34-2.7 166.14-5.9 166.14-11.88 166.14-17.85 169.56-21.08 172.99-24.3 179.19-24.3 185.39-24.3 188.44-21.33 191.49-18.35 191.49-12.25L191.49-12.25Q191.49 0.5 178.79 0.5L178.79 0.5ZM211.13-13.45Q211.13-18.6 210.63-20.38 210.13-22.15 208.68-22.15 207.23-22.15 206.08-20.28 204.93-18.4 204.93-15.25L204.93-15.25 204.93-6.1Q204.93-3.95 205.78-2.45 206.63-0.95 208.28-0.95 209.93-0.95 210.53-3.15 211.13-5.35 211.13-10.85L211.13-10.85 211.13-13.45ZM192.98-23.8L204.83-23.8 204.83-19.85Q206.78-24.3 211.73-24.3L211.73-24.3Q216.03-24.3 218.41-21.2 220.78-18.1 220.78-11.8 220.78-5.5 218.21-2.5 215.63 0.5 210.48 0.5L210.48 0.5Q208.08 0.5 206.88-0.1 205.68-0.7 204.93-1.95L204.93-1.95 204.93 11 211.38 11 211.38 11.9 192.88 11.9 192.88 11 195.63 11 195.63-22.9 192.98-22.9 192.98-23.8ZM226.08 7.8L226.08 7.8 225.48 7.05Q228.58 4.4 229.53 2.93 230.48 1.45 230.48-0.33 230.48-2.1 228.93-2.3L228.93-2.3 226.53-0.15Q225.38-0.55 224.46-1.58 223.53-2.6 223.53-4.23 223.53-5.85 224.71-7 225.88-8.15 227.96-8.15 230.03-8.15 231.33-6.55 232.63-4.95 232.63-2.3 232.63 0.35 231.08 2.8 229.53 5.25 226.08 7.8ZM245.13-34.05L245.13-35 260.38-35 260.38-34.05 257.63-34.05 257.63-0.95 260.38-0.95 260.38 0 245.13 0 245.13-0.95 247.88-0.95 247.88-34.05 245.13-34.05ZM262.22-22.9L262.22-23.8 274.27-23.8 274.27-19.2Q275.07-21.5 276.72-22.9 278.37-24.3 281.72-24.3L281.72-24.3Q289.47-24.3 289.47-15.95L289.47-15.95 289.47-0.9 292.27-0.9 292.27 0 278.12 0 278.12-0.9 280.17-0.9 280.17-17.15Q280.17-20.15 279.77-21.03 279.37-21.9 278.32-21.9L278.32-21.9Q276.72-21.9 275.5-19.8 274.27-17.7 274.27-14.7L274.27-14.7 274.27-0.9 276.42-0.9 276.42 0 262.22 0 262.22-0.9 264.97-0.9 264.97-22.9 262.22-22.9ZM308.07-37.8L308.07-37.8Q306.17-37.8 305.57-36.38 304.97-34.95 304.97-31.8L304.97-31.8 304.97-23.8 311.57-23.8 311.57-22.9 304.97-22.9 304.97-0.9 311.07-0.9 311.07 0 292.92 0 292.92-0.9 295.67-0.9 295.67-22.9 292.77-22.9 292.77-23.8 295.67-23.8 295.67-24Q295.67-31.2 298.42-34.93 301.17-38.65 307.62-38.65L307.62-38.65Q311.87-38.65 313.72-36.98 315.57-35.3 315.57-33.1 315.57-30.9 314.42-29.8 313.27-28.7 311.37-28.7 309.47-28.7 308.44-29.68 307.42-30.65 307.42-31.93 307.42-33.2 307.72-34.4L307.72-34.4 309.62-34.4Q310.62-37.8 308.07-37.8ZM319.42-27.25Q316.77-27.25 315.64-28.6 314.52-29.95 314.52-31.95 314.52-33.95 315.74-35.25 316.97-36.55 319.47-36.55 321.97-36.55 323.27-35.38 324.57-34.2 324.57-32.02 324.57-29.85 323.32-28.55 322.07-27.25 319.42-27.25ZM311.87-22.9L311.87-23.8 324.12-23.8 324.12-0.9 326.92-0.9 326.92 0 312.07 0 312.07-0.9 314.82-0.9 314.82-22.9 311.87-22.9ZM328.02-22.9L328.02-23.8 340.06-23.8 340.06-19.2Q340.87-21.5 342.52-22.9 344.17-24.3 347.52-24.3L347.52-24.3Q355.27-24.3 355.27-15.95L355.27-15.95 355.27-0.9 358.06-0.9 358.06 0 343.92 0 343.92-0.9 345.97-0.9 345.97-17.15Q345.97-20.15 345.56-21.03 345.17-21.9 344.12-21.9L344.12-21.9Q342.52-21.9 341.29-19.8 340.06-17.7 340.06-14.7L340.06-14.7 340.06-0.9 342.22-0.9 342.22 0 328.02 0 328.02-0.9 330.77-0.9 330.77-22.9 328.02-22.9ZM366.06-27.25Q363.41-27.25 362.29-28.6 361.16-29.95 361.16-31.95 361.16-33.95 362.39-35.25 363.61-36.55 366.11-36.55 368.61-36.55 369.91-35.38 371.21-34.2 371.21-32.02 371.21-29.85 369.96-28.55 368.71-27.25 366.06-27.25ZM358.51-22.9L358.51-23.8 370.76-23.8 370.76-0.9 373.56-0.9 373.56 0 358.71 0 358.71-0.9 361.46-0.9 361.46-22.9 358.51-22.9ZM377.06-7.15L377.06-7.15 377.06-22.9 374.31-22.9 374.31-23.8 377.06-23.8 377.06-30.25 386.36-32.55 386.36-23.8 392.86-23.8 392.86-22.9 386.36-22.9 386.36-6.05Q386.36-3.7 386.84-2.6 387.31-1.5 388.81-1.5 390.31-1.5 391.44-3 392.56-4.5 392.91-7.1L392.91-7.1 393.76-7Q393.36-3.55 391.56-1.53 389.76 0.5 385.61 0.5 381.46 0.5 379.26-1.15 377.06-2.8 377.06-7.15ZM407.41 0.5Q400.96 0.5 397.73-2.83 394.51-6.15 394.51-12.08 394.51-18 398.13-21.15 401.76-24.3 407.36-24.3L407.36-24.3Q418.71-24.3 418.26-12.9L418.26-12.9 404.16-12.9 404.16-10.95Q404.16-6.05 405.41-3.55 406.66-1.05 409.76-1.05L409.76-1.05Q415.56-1.05 417.36-7.25L417.36-7.25 418.26-7.1Q417.31-3.5 414.83-1.5 412.36 0.5 407.41 0.5L407.41 0.5ZM404.21-16.35L404.21-13.9 409.36-13.9 409.36-16.35Q409.36-20.4 408.88-21.88 408.41-23.35 406.98-23.35 405.56-23.35 404.88-21.78 404.21-20.2 404.21-16.35L404.21-16.35ZM429.8-34.05L429.8-35 445.05-35 445.05-34.05 442.3-34.05 442.3-0.95 445.05-0.95 445.05 0 429.8 0 429.8-0.95 432.55-0.95 432.55-34.05 429.8-34.05ZM446.8-22.9L446.8-23.8 458.85-23.8 458.85-19.2Q460.5-24.3 466.13-24.3 471.75-24.3 472.95-18.9L472.95-18.9Q474.7-24.3 480.3-24.3L480.3-24.3Q487.65-24.3 487.65-15.95L487.65-15.95 487.65-0.9 490.45-0.9 490.45 0 476.6 0 476.6-0.9 478.35-0.9 478.35-17.15Q478.35-20.95 477.7-21.6L477.7-21.6Q477.4-21.9 476.9-21.9L476.9-21.9Q475.45-21.9 474.35-19.95 473.25-18 473.25-15L473.25-15 473.25-0.9 475.05-0.9 475.05 0 462.2 0 462.2-0.9 463.95-0.9 463.95-17.15Q463.95-20.95 463.3-21.6L463.3-21.6Q463-21.9 462.5-21.9L462.5-21.9Q461.1-21.9 459.98-19.78 458.85-17.65 458.85-14.7L458.85-14.7 458.85-0.9 460.65-0.9 460.65 0 446.8 0 446.8-0.9 449.55-0.9 449.55-22.9 446.8-22.9ZM509.45-13.45Q509.45-18.6 508.95-20.38 508.45-22.15 507-22.15 505.55-22.15 504.4-20.28 503.25-18.4 503.25-15.25L503.25-15.25 503.25-6.1Q503.25-3.95 504.1-2.45 504.95-0.95 506.6-0.95 508.25-0.95 508.85-3.15 509.45-5.35 509.45-10.85L509.45-10.85 509.45-13.45ZM491.3-23.8L503.15-23.8 503.15-19.85Q505.1-24.3 510.05-24.3L510.05-24.3Q514.35-24.3 516.72-21.2 519.1-18.1 519.1-11.8 519.1-5.5 516.52-2.5 513.95 0.5 508.8 0.5L508.8 0.5Q506.4 0.5 505.2-0.1 504-0.7 503.25-1.95L503.25-1.95 503.25 11 509.7 11 509.7 11.9 491.2 11.9 491.2 11 493.95 11 493.95-22.9 491.3-22.9 491.3-23.8ZM532.6-11.75L532.6-11.75 534.05-11.75 534.05-15.6Q534.05-20.35 533.52-21.98 533-23.6 531.5-23.6L531.5-23.6Q530.6-23.6 529.87-23.13 529.14-22.65 529.14-21.83 529.14-21 529.45-20.15L529.45-20.15 530.7-20.15Q531.1-19.1 531.1-17.63 531.1-16.15 529.85-15.08 528.6-14 526.7-14L526.7-14Q522.39-14 522.39-18.15L522.39-18.15Q522.39-24.3 532.85-24.3L532.85-24.3Q538.8-24.3 541.07-22.28 543.35-20.25 543.35-14.85L543.35-14.85 543.35-4.7Q543.35-2.1 544.8-2.1L544.8-2.1Q546.5-2.1 546.8-7.25L546.8-7.25 547.55-7.2Q547.35-2.8 545.89-1.15 544.45 0.5 541.14 0.5L541.14 0.5Q535.14 0.5 534.25-3.2L534.25-3.2Q533.6-1.3 532.3-0.4 531 0.5 528.5 0.5L528.5 0.5Q521.1 0.5 521.1-5.55L521.1-5.55Q521.1-9.1 523.92-10.43 526.75-11.75 532.6-11.75ZM530.6-5.6Q530.6-3 530.87-2.25 531.14-1.5 531.92-1.5 532.7-1.5 533.37-2.78 534.05-4.05 534.05-6.3L534.05-6.3 534.05-10.95 533.7-10.95Q530.6-10.95 530.6-6.4L530.6-6.4 530.6-5.6ZM562.04-23.4L562.04-23.4Q559.84-23.4 558.89-21 557.94-18.6 557.94-13.05L557.94-13.05 557.94-10.45Q557.94-5.5 559.04-3.35 560.14-1.2 563.09-1.2 566.04-1.2 567.79-3.2 569.54-5.2 570.04-7.75L570.04-7.75 570.94-7.65Q569.99-3.35 567.44-1.45L567.44-1.45Q564.84 0.5 560.29 0.5L560.29 0.5Q554.49 0.5 551.39-2.63 548.29-5.75 548.29-11.78 548.29-17.8 551.82-21.05 555.34-24.3 561.64-24.3L561.64-24.3Q566.09-24.3 568.44-22.58 570.79-20.85 570.79-18.25 570.79-15.65 569.67-14.45 568.54-13.25 566.57-13.25 564.59-13.25 563.39-14.3 562.19-15.35 562.19-17.4L562.19-17.4Q562.19-18.3 562.44-19.2L562.44-19.2 564.09-19.2Q564.44-20.2 564.44-21L564.44-21Q564.44-23.4 562.04-23.4ZM574.69-7.15L574.69-7.15 574.69-22.9 571.94-22.9 571.94-23.8 574.69-23.8 574.69-30.25 583.99-32.55 583.99-23.8 590.49-23.8 590.49-22.9 583.99-22.9 583.99-6.05Q583.99-3.7 584.46-2.6 584.94-1.5 586.44-1.5 587.94-1.5 589.06-3 590.19-4.5 590.54-7.1L590.54-7.1 591.39-7Q590.99-3.55 589.19-1.53 587.39 0.5 583.24 0.5 579.09 0.5 576.89-1.15 574.69-2.8 574.69-7.15Z" opacity="1" transform="matrix(1,0,0,1,0,0)" fill="#000000" class="slogan-text-1" data-fill-palette-color="secondary" id="text-1"></path></svg></g></svg></g></svg></g></svg></g><g><svg viewBox="0 0 229.11230371492996 229.11230371492996" height="229.11230371492996" width="229.11230371492996"><g><svg></svg></g><g id="icon-0"><svg viewBox="0 0 229.11230371492996 229.11230371492996" height="229.11230371492996" width="229.11230371492996"><g><path d="M0 114.556c0-63.268 51.289-114.556 114.556-114.556 63.268 0 114.556 51.289 114.556 114.556 0 63.268-51.289 114.556-114.556 114.556-63.268 0-114.556-51.289-114.556-114.556zM114.556 223.432c60.13 0 108.876-48.745 108.876-108.876 0-60.13-48.745-108.876-108.876-108.875-60.13 0-108.876 48.745-108.875 108.875 0 60.13 48.745 108.876 108.875 108.876z" data-fill-palette-color="accent" fill="#000000" stroke="transparent"></path></g><g transform="matrix(1,0,0,1,46.62835248522629,86.13534262771977)"><svg viewBox="0 0 135.8555987444774 56.84161845949044" height="56.84161845949044" width="135.8555987444774"><g><svg xmlns="http://www.w3.org/2000/svg" xmlns:xlink="http://www.w3.org/1999/xlink" version="1.1" x="0" y="0" viewBox="1.4879999999999995 29.703 97.02499999999999 40.595" enable-background="new 0 0 100 100" xml:space="preserve" height="56.84161845949044" width="135.8555987444774" class="icon-vz-0" data-fill-palette-color="accent" id="vz-0"><g fill="#d9cad3" data-fill-palette-color="accent"><g fill="#d9cad3" data-fill-palette-color="accent"><path d="M14.34 39.339H47.95c-1.432-5.545-6.442-9.636-12.436-9.636H14.34c-7.094 0-12.852 5.748-12.852 12.861v14.871c0 7.116 5.758 12.861 12.852 12.861h21.173c5.994 0 11.004-4.091 12.436-9.634H14.34c-1.773 0-3.214-1.443-3.214-3.228V42.564C11.126 40.78 12.567 39.339 14.34 39.339z" fill="#000000" data-fill-palette-color="accent"></path><path d="M85.661 29.703H64.486c-5.992 0-11.003 4.091-12.435 9.636h33.609c1.773 0 3.226 1.441 3.226 3.226v14.871c0 1.784-1.452 3.228-3.226 3.228H77.83 52.052c1.432 5.543 6.442 9.634 12.435 9.634h21.175c7.104 0 12.851-5.745 12.851-12.861V42.564C98.512 35.451 92.765 29.703 85.661 29.703z" fill="#000000" data-fill-palette-color="accent"></path></g><path d="M75.426 50c0 2.863-2.317 5.17-5.181 5.17H29.757c-2.863 0-5.183-2.307-5.183-5.17l0 0c0-2.863 2.319-5.17 5.183-5.17h40.488C73.108 44.83 75.426 47.137 75.426 50L75.426 50z" fill="#000000" data-fill-palette-color="accent"></path></g></svg></g></svg></g></svg></g></svg></g></svg></g><defs></defs></svg><rect width="395.52" height="138.4812356912644" fill="none" stroke="none" visibility="hidden"></rect></g></svg></g></svg>